<svg width="24" height="24" viewBox="0 0 24 24" xmlns="http://www.w3.org/2000/svg">
    <path d="M10.5 2.55c.492-1.333 2.31-1.403 2.924-.175l.061.137 2.249 5.653h6.164c1.4 0 2.08 1.647 1.226 2.649l-.094.101-.105.096-4.56 3.846 1.758 5.538c.402 1.27-.8 2.414-1.995 2.032l-.123-.045-.124-.057L12 19.355l-5.881 2.97c-1.206.61-2.523-.456-2.296-1.714l.03-.13.038-.128 1.975-5.677-4.731-3.616a1.588 1.588 0 0 1-.558-1.77l-.052-.04H.59c.178-.52.61-.952 1.216-1.059l.155-.02.14-.006H8.43L10.5 2.55zm3.84 7.7-2.323-5.851-2.152 5.851h-6.39l4.833 3.702-2.097 6.042L12 17.064l5.83 2.951-1.846-5.834 4.649-3.931H14.34z" fill="#C7C7D0" fill-rule="evenodd"/>
</svg>
