<svg width="24" height="24" viewBox="0 0 24 24" xmlns="http://www.w3.org/2000/svg">
    <path d="M20.67 11.5c.483.023.85.438.83.92-.222 5.071-4.283 9.08-9.224 9.08-3.26 0-6.227-1.763-7.88-4.551l-.038-.066-.738 2.777a.878.878 0 0 1-.967.645l-.109-.022a.88.88 0 0 1-.62-1.077l1.303-4.898a.877.877 0 0 1 1.076-.623l4.86 1.312a.88.88 0 0 1-.456 1.7l-2.894-.781.028.05c1.29 2.23 3.6 3.67 6.16 3.767l.275.005c4.004 0 7.307-3.26 7.487-7.396a.874.874 0 0 1 .908-.841zm-8.981-9a9.206 9.206 0 0 1 7.895 4.456l.023.042.673-2.532a.878.878 0 0 1 .968-.646l.108.023a.88.88 0 0 1 .62 1.077l-1.302 4.897a.877.877 0 0 1-1.076.623l-4.86-1.312a.88.88 0 0 1 .456-1.7l3.14.847-.034-.066a7.465 7.465 0 0 0-6.34-3.974l-.271-.005c-4.118 0-7.455 3.316-7.455 7.405a.866.866 0 0 1-.867.865.866.866 0 0 1-.867-.865C2.5 6.59 6.615 2.5 11.689 2.5z" fill="#C7C7D0" fill-rule="evenodd"/>
</svg>
