<svg width="24" height="24" viewBox="0 0 24 24" xmlns="http://www.w3.org/2000/svg">
    <path d="M14.172 1.5a2.5 2.5 0 0 1 1.767.732l3.829 3.829a2.5 2.5 0 0 1 .732 1.767V20a2.5 2.5 0 0 1-2.5 2.5H6.5A2.5 2.5 0 0 1 4 20v-9.5h-.5v-5H4V4a2.5 2.5 0 0 1 2.336-2.495L6.5 1.5h7.672zm-1.043 1.75H6.5a.75.75 0 0 0-.75.75v1.5h5.75v5H5.75V20c0 .38.282.693.648.743l.102.007H18a.75.75 0 0 0 .75-.75V8.875h-2.745a2.875 2.875 0 0 1-2.87-2.706L13.13 6l-.001-2.75zM12.2 10.5c.272 0 .455.115.642.32l.146.175.04.05c.035.044.064.083.096.137.201.346.222.903.026 1.903l-.114.525.076.145a10.64 10.64 0 0 0 1.32 1.932l.025.026c.282-.042.533-.068.76-.078l.219-.006c.708 0 1.208.19 1.448.648.21.402.129.845-.174 1.262-.285.393-.7.612-1.174.612-.47 0-.954-.214-1.461-.618l-.141-.117-.173.039c-.708.17-1.471.41-2.15.676l-.23.093-.042.088c-.214.426-.422.79-.623 1.091l-.12.172c-.391.54-.767.847-1.24.917l-.17.006-.129-.012a1.068 1.068 0 0 1-.463-.195c-.455-.336-.637-.777-.586-1.222.08-.699.72-1.307 1.876-1.893l.314-.153.117-.257c.375-.865.725-1.84.976-2.722l.071-.267-.022-.047c-.411-.932-.588-1.715-.395-2.32l.052-.137c.15-.345.357-.579.696-.69a2.15 2.15 0 0 1 .507-.083zm.312 5.29-.078-.115-.206.572.341-.104.166-.046-.223-.307zM14.88 3.648V6c0 .621.504 1.125 1.125 1.125l2.351-.001-3.476-3.476z" fill="#C7C7D0" fill-rule="evenodd"/>
</svg>
