<svg width="21" height="21" viewBox="0 0 21 21" xmlns="http://www.w3.org/2000/svg">
    <path d="M10.5 0c.368 0 .733.023 1.095.07.49.062.686.203.936.838l.104.281.369 1.111.07.02a8.52 8.52 0 0 1 1.1.433l.352.177.05.028.524-.268.368-.192.308-.152c.702-.331.93-.302 1.343.018a8.616 8.616 0 0 1 1.522 1.524c.297.383.342.614.084 1.213l-.13.28-.539 1.071.036.063c.185.353.346.718.48 1.092l.125.378.017.061.568.185.373.12.311.106c.752.27.904.457.969.982a8.65 8.65 0 0 1-.003 2.143c-.062.49-.2.686-.836.933l-.282.102-1.106.362-.004.014a8.52 8.52 0 0 1-.501 1.273l-.164.315.268.53.189.368c.48.954.49 1.191.126 1.657a8.617 8.617 0 0 1-1.502 1.499l-.157.112c-.3.193-.542.194-1.056-.028l-.282-.13-1.067-.538-.062.034a8.529 8.529 0 0 1-1.09.482l-.378.126-.064.018-.306.943-.107.31-.099.255c-.225.534-.426.658-.885.715a8.649 8.649 0 0 1-2.145-.001c-.557-.07-.733-.238-1.034-1.118l-.112-.342-.13-.407-.119-.356-.01-.003a8.52 8.52 0 0 1-1.275-.5l-.316-.164-.53.269-.367.189-.161.08-.282.131c-.6.262-.829.216-1.213-.083a8.616 8.616 0 0 1-1.516-1.52c-.32-.412-.348-.642-.02-1.343l.151-.307.461-.898-.005-.01a8.528 8.528 0 0 1-.552-1.26l-.105-.329-.564-.186-.375-.117-.312-.105c-.754-.268-.903-.452-.969-.977a8.648 8.648 0 0 1 .001-2.164c.067-.523.22-.71.971-.982l.31-.107.946-.309.018-.064c.118-.38.263-.75.432-1.109l.178-.355.031-.056-.458-.897c-.482-.953-.493-1.188-.13-1.654A8.616 8.616 0 0 1 3.88 2.365c.439-.34.675-.35 1.494.047l1.065.537.014-.008a8.528 8.528 0 0 1 1.262-.55l.344-.11.369-1.105C8.735.3 8.915.128 9.473.061 9.813.021 10.155 0 10.5 0zm0 2c-.09 0-.178.002-.267.005l-.152.009-.157.474-.125.382-.109.311c-.222.603-.374.761-.744.87l-.09.024a6.58 6.58 0 0 0-1.446.557l-.272.152c-.333.196-.535.235-.98.06l-.244-.107-.294-.144-.734-.375-.069-.034-.127.113-.196.188-.193.201-.114.128.112.222.21.403.164.325.126.269c.215.488.207.701.037 1.015l-.046.081a6.59 6.59 0 0 0-.603 1.34l-.103.354c-.108.414-.232.575-.798.791l-.27.097-1 .325-.01.185L2 10.5c0 .094.002.187.006.28l.01.168.993.316.143.049.244.091c.434.178.562.332.657.659l.023.085c.129.503.316.987.558 1.445l.152.272c.23.389.245.598-.05 1.221l-.145.295-.342.659-.069.137.113.128.189.198c.066.066.133.13.2.193l.128.112.796-.406.296-.145c.582-.272.804-.279 1.144-.094l.081.046a6.59 6.59 0 0 0 1.41.626l.297.084c.355.092.524.196.701.58l.09.217.097.271.323.996.179.011.276.006.277-.006.168-.01.116-.347.157-.49.102-.302c.226-.631.375-.79.754-.901l.085-.023a6.579 6.579 0 0 0 1.376-.525l.324-.179c.388-.228.6-.243 1.224.047l.295.144.734.374.069.033.127-.11.195-.187.19-.197.109-.125-.161-.322-.244-.474a13.839 13.839 0 0 1-.077-.155l-.125-.269c-.232-.53-.203-.737.011-1.098a6.59 6.59 0 0 0 .626-1.407l.085-.298c.1-.383.214-.55.683-.745l.243-.093.3-.103.764-.246.076-.028.011-.18L19 10.5c0-.123-.003-.245-.01-.364l-.005-.075-.995-.322-.27-.096c-.527-.2-.67-.354-.774-.707l-.023-.085a6.578 6.578 0 0 0-.522-1.377l-.178-.324c-.212-.36-.24-.569-.01-1.097l.124-.268.485-.96-.115-.13-.188-.196a6.676 6.676 0 0 0-.203-.196l-.129-.114-.432.223-.357.186-.296.147c-.58.276-.8.282-1.142.096l-.08-.046a6.591 6.591 0 0 0-1.331-.603l-.351-.103c-.403-.106-.567-.23-.779-.766l-.102-.278L11.2 2.7l-.17-.523-.056-.159-.193-.012L10.5 2zm0 3a5.5 5.5 0 1 1 0 11 5.5 5.5 0 0 1 0-11zm0 2a3.5 3.5 0 1 0 0 7 3.5 3.5 0 0 0 0-7z" fill="#C7C7D0" fill-rule="evenodd"/>
</svg>
