<svg width="36" height="35.438" viewBox="0 0 36 35.438" xmlns="http://www.w3.org/2000/svg" xmlns:xlink="http://www.w3.org/1999/xlink">
    <defs>
        <path id="hzh2vhmufa" d="M0 0h16.607v15.73H0z"/>
        <path d="M0 4.857a4.863 4.863 0 0 0 4.857 4.857 4.863 4.863 0 0 0 4.857-4.857.908.908 0 0 0-1.815 0A3.046 3.046 0 0 1 4.857 7.9a3.046 3.046 0 0 1-3.042-3.042 3.046 3.046 0 0 1 3.042-3.042c.5 0 .908-.407.908-.908A.91.91 0 0 0 4.855 0C2.191.013.013 2.191 0 4.857z" id="kctrvmri2c"/>
        <path d="M3.123 3.123C1.11 5.137 0 7.798 0 10.616c0 2.817 1.11 5.478 3.123 7.492 2.014 2.014 4.675 3.123 7.493 3.123 2.817 0 5.478-1.109 7.492-3.123 2.014-2.014 3.123-4.675 3.123-7.492 0-.658-.535-1.193-1.192-1.193-.658 0-1.193.535-1.193 1.193 0 2.182-.86 4.245-2.423 5.807a8.169 8.169 0 0 1-11.615 0 8.168 8.168 0 0 1 0-11.615 8.168 8.168 0 0 1 5.808-2.423c.657 0 1.192-.535 1.192-1.192C11.808.535 11.273 0 10.616 0 7.798 0 5.137 1.11 3.123 3.123z" id="h3lcxai0se"/>
        <path d="M4.966 4.966C1.763 8.168 0 12.397 0 16.875c0 4.478 1.763 8.707 4.966 11.91 3.202 3.201 7.431 4.965 11.909 4.965 4.478 0 8.707-1.763 11.91-4.966 3.202-3.202 4.965-7.431 4.965-11.909 0-.725-.59-1.315-1.315-1.315s-1.314.59-1.314 1.315c0 3.78-1.49 7.35-4.193 10.053-2.704 2.704-6.274 4.193-10.053 4.193-3.78 0-7.35-1.49-10.053-4.193-2.704-2.704-4.193-6.274-4.193-10.053 0-3.78 1.49-7.35 4.193-10.053 2.704-2.704 6.274-4.193 10.053-4.193.725 0 1.315-.59 1.315-1.314C18.19.59 17.6 0 16.875 0c-4.478 0-8.707 1.763-11.91 4.966z" id="3h4hkr7seg"/>
    </defs>
    <g fill="none" fill-rule="evenodd">
        <path d="M25.86 12.407c0 1.144-.93 2.072-2.076 2.072a2.074 2.074 0 0 1-2.076-2.072c0-1.144.93-2.072 2.076-2.072s2.076.928 2.076 2.072" fill="#A84CD8"/>
        <path d="M28.766 8.47a1.037 1.037 0 1 1-2.074-.002 1.037 1.037 0 0 1 2.074.002" fill="#FFB624"/>
        <g transform="translate(1.526 14.037)">
            <mask id="ifkrjuwt8b" fill="#fff">
                <use xlink:href="#hzh2vhmufa"/>
            </mask>
            <path d="M16.607 4.01 4.864 15.73A16.554 16.554 0 0 1 .494 0l16.113 4.01z" fill="#FF8A00" mask="url(#ifkrjuwt8b)"/>
        </g>
        <g transform="translate(13.143 13.143)">
            <mask id="kaw1nyqs2d" fill="#fff">
                <use xlink:href="#kctrvmri2c"/>
            </mask>
            <path fill="#A84CD8" mask="url(#kaw1nyqs2d)" d="M-.133 9.847h9.98v-9.98h-9.98z"/>
            <path fill="#FFB624" mask="url(#kaw1nyqs2d)" d="M4.857 4.857h-4.99v-4.99h9.98z"/>
        </g>
        <g transform="translate(7.434 7.334)">
            <mask id="0pbwt852ff" fill="#fff">
                <use xlink:href="#h3lcxai0se"/>
            </mask>
            <path fill="#A84CD8" mask="url(#0pbwt852ff)" d="M-.284 21.515h21.8V-.284h-21.8z"/>
            <path fill="#FFB624" mask="url(#0pbwt852ff)" d="M10.616 10.616h-10.9v-10.9h21.8z"/>
        </g>
        <g transform="translate(1.125 1.125)">
            <mask id="fg40rsnlvh" fill="#fff">
                <use xlink:href="#3h4hkr7seg"/>
            </mask>
            <path fill="#A84CD8" mask="url(#fg40rsnlvh)" d="M-1.448 35.198h36.646V-1.448H-1.448z"/>
            <path fill="#FFB624" mask="url(#fg40rsnlvh)" d="M16.875 16.875H-1.448V-1.447h36.646z"/>
        </g>
    </g>
</svg>
