<svg width="20" height="20" viewBox="0 0 20 20" xmlns="http://www.w3.org/2000/svg">
    <g fill-rule="nonzero" fill="none">
        <path d="M19.691 10.215c0-.676-.054-1.356-.171-2.022h-9.386v3.832h5.375a4.606 4.606 0 0 1-1.99 3.024v2.486h3.207c1.883-1.733 2.965-4.292 2.965-7.32z" fill="#4285F4"/>
        <path d="M10.134 19.937c2.684 0 4.947-.881 6.596-2.402l-3.206-2.486c-.893.607-2.044.95-3.386.95-2.596 0-4.797-1.75-5.587-4.105H1.242v2.562a9.952 9.952 0 0 0 8.892 5.481z" fill="#34A853"/>
        <path d="M4.548 11.894a5.96 5.96 0 0 1 0-3.81V5.52H1.242a9.959 9.959 0 0 0 0 8.935l3.306-2.562z" fill="#FBBC04"/>
        <path d="M10.134 3.974a5.407 5.407 0 0 1 3.817 1.492l2.841-2.84a9.563 9.563 0 0 0-6.658-2.59 9.948 9.948 0 0 0-8.892 5.485l3.306 2.563c.786-2.358 2.99-4.11 5.586-4.11z" fill="#EA4335"/>
    </g>
</svg>
